<?xml version="1.0" encoding="utf-8"?>
<!-- Generator: Adobe Illustrator 21.0.0, SVG Export Plug-In . SVG Version: 6.00 Build 0)  -->
<svg version="1.1" id="Layer_1" xmlns="http://www.w3.org/2000/svg" xmlns:xlink="http://www.w3.org/1999/xlink" x="0px" y="0px"
	 viewBox="0 0 69.5 69.4" style="enable-background:new 0 0 69.5 69.4;" xml:space="preserve">
<path d="M37.5,18.8c-0.4,0.3-0.5,0.8-0.4,1.3l1.1,3.2l-2.7-2.2c-0.2-0.2-0.5-0.3-0.7-0.3c-0.3,0-0.5,0.1-0.7,0.3l-2.7,2.2l1.1-3.2
	c0.2-0.5,0-1-0.4-1.3l-3.2-2.6h3.6c0.5,0,0.9-0.3,1.1-0.7l1.2-2.8l1.3,2.8c0.2,0.4,0.6,0.7,1,0.7h3.6L37.5,18.8z M44,13.9h-6.2
	l-2.1-4.5c-0.2-0.4-0.6-0.7-1.1-0.7c-0.5,0-0.9,0.3-1,0.7l-1.9,4.4h-6.2c-0.5,0-0.9,0.3-1.1,0.8c-0.2,0.5,0,1,0.4,1.3l5.2,4.1
	l-2.1,6.2c-0.2,0.5,0,1,0.4,1.3c0.4,0.3,1,0.3,1.4,0l5.1-4l5.1,4c0.2,0.2,0.5,0.3,0.7,0.3c0.2,0,0.5-0.1,0.7-0.2
	c0.4-0.3,0.6-0.8,0.4-1.3l-2.1-6.2l5.2-4.1c0.4-0.3,0.5-0.8,0.4-1.3C44.9,14.2,44.5,13.9,44,13.9"/>
<path d="M57,28.7c2.5-4.7,4.5-11.6,5-21.8h5.1c0.1,4.1,0.1,14.1-4.8,19.1C60.9,27.5,59.1,28.4,57,28.7 M44.3,37.9
	c-4.1,2.5-7.9,4.8-7.9,11.4c0,9.1,4.1,13.9,12.2,14.3v3.5H20.8v-3.5c8.5-0.3,11.9-4.4,12-14.3c0-6.6-3.8-8.9-7.8-11.3
	C18.6,34.1,9.9,28.9,9.7,2.3h50.2C59.6,28.8,50.8,34.1,44.3,37.9 M6.9,26C2.1,21.2,2.3,11.6,2.3,7c0,0,0,0,0-0.1h5.2
	C8,17.2,9.9,24,12.4,28.8C10.2,28.4,8.4,27.5,6.9,26 M69.4,6.6c0-0.3,0-0.6,0-0.9c0-0.6-0.5-1.2-1.2-1.2h-6.2c0-1.1,0.1-2.3,0.1-3.5
	C62.2,0.5,61.6,0,61,0H8.5C7.9,0,7.3,0.5,7.3,1.2c0,1.2,0,2.3,0.1,3.5H1.2C0.5,4.6,0,5.1,0,5.8C0,6.1,0,6.5,0,7
	C0,11.9-0.2,22.1,5.3,27.6c2.2,2.2,5.1,3.4,8.6,3.6c3.1,4.6,6.8,6.9,10,8.8c4,2.4,6.7,4,6.7,9.3c-0.2,10.1-4,12-10.9,12
	c-0.6,0-1.2,0.5-1.2,1.2v5.8c0,0.6,0.5,1.2,1.2,1.2h30.1c0.6,0,1.2-0.5,1.2-1.2v-5.8c0-0.6-0.5-1.2-1.2-1.2c-7.5,0-11-3.8-11-12
	c0-5.3,2.7-6.9,6.8-9.4c3.2-1.9,6.9-4.2,10-8.7c3.4-0.1,6.2-1.3,8.4-3.6C69.7,21.9,69.5,10.8,69.4,6.6"/>
</svg>
