<?xml version="1.0" encoding="utf-8"?>
<!-- Generator: Adobe Illustrator 21.0.0, SVG Export Plug-In . SVG Version: 6.00 Build 0)  -->
<svg version="1.1" id="Layer_1" xmlns="http://www.w3.org/2000/svg" xmlns:xlink="http://www.w3.org/1999/xlink" x="0px" y="0px"
	 viewBox="0 0 127.6 55.3" style="enable-background:new 0 0 127.6 55.3;" xml:space="preserve">
<style type="text/css">
	.st0{fill:#333333;}
</style>
<path class="st0" d="M9.7,34c-1.9-2.1-3-4.8-3-7.7c0-6.3,5.1-11.5,11.4-11.5c2.8,0,5.4,1,7.3,2.7L9.7,34z M26.7,18.6
	c1.8,2,3,4.7,3,7.7c0,6.3-5.2,11.4-11.5,11.4c-2.7,0-5.3-1-7.2-2.6L26.7,18.6z M31.3,13.7l5.1-5.4h-2.3l-4,4.2
	c-3.2-2.8-7.4-4.4-11.9-4.4C8.1,8.1,0,16.2,0,26.2c0,4.9,1.9,9.3,5.1,12.6l-5,5.2h2.2l4-4.2c3.2,2.8,7.3,4.5,11.9,4.5
	c10,0,18.2-8.1,18.2-18.1C36.3,21.3,34.4,16.9,31.3,13.7 M68.1,55.3L91.8,0h-8.9L71,28.3c-1.3,3-2.2,5.8-2.9,8.6
	c-0.6-2.8-1.6-5.6-2.8-8.6L53.3,0h-9L68.1,55.3z M102.7,8.8V44h12.6c2.8,0,7.1,0.1,9.8-3.4c2.6-3.2,2.8-7.1,2.2-9.8
	c-0.8-3.5-3-5-5.9-6c1-0.7,1.6-1.5,2-2.1c1.7-2.4,2-7,0.4-9.7c-2.4-4.6-6.9-4.1-9.6-4.1H102.7z M109.6,22.7v-8.2
	c3.3,0,6-0.2,7.4,1.8c0.5,0.9,0.7,2.6,0.2,4c-0.8,1.7-2,2.1-3.6,2.3C112.6,22.8,112.2,22.7,109.6,22.7 M109.6,38.3v-9.7h2.3
	c2.3,0,6.4-0.2,8,2.5c0.7,1.3,0.6,3.7-0.2,5c-1.6,2.6-5,2.3-8.4,2.3H109.6z"/>
</svg>
