<?xml version="1.0" encoding="utf-8"?>
<!-- Generator: Adobe Illustrator 21.0.0, SVG Export Plug-In . SVG Version: 6.00 Build 0)  -->
<svg version="1.1" id="Layer_1" xmlns="http://www.w3.org/2000/svg" xmlns:xlink="http://www.w3.org/1999/xlink" x="0px" y="0px"
	 viewBox="0 0 252.8 31.9" style="enable-background:new 0 0 252.8 31.9;" xml:space="preserve">
<style type="text/css">
	.st0{fill:#C7C7C7;}
</style>
<path class="st0" d="M240.6,15.5v3.1h8.5c-0.4,5.8-4.8,9.7-10.7,9.7c-6.8,0-11.6-5-11.6-12.1c0-7.5,4.7-12.6,11.6-12.6
	c4.2,0,7.4,1.8,9.5,5.4l2.9-2.4c-2.8-4.2-7-6.2-12.6-6.2c-4.3,0-7.8,1.3-10.5,3.8c-3.2,3-4.8,7-4.8,11.9c0,6,2.8,10.9,7.6,13.5
	c2,1.1,4.5,1.7,7.5,1.7c9,0,14.8-5.6,14.8-15.1v-1H240.6z M193.1,30.8h3.4V8.5l21.7,23.4V1.2h-3.4v22.5L193.1,0V30.8z M182.4,30.8
	h3.5V1.2h-3.5V30.8z M175.5,8.2V3.6c-3.1-2.1-6.2-3.2-9.7-3.2c-4.4,0-8,1.4-11,4.3c-3.1,3-4.6,6.7-4.6,11.3c0,5.3,2.4,9.7,6.7,12.7
	c2.6,1.8,5.6,2.7,8.7,2.7c3.6,0,7-1.1,10-3.2v-4.7c-2.7,3.1-6,4.7-9.7,4.7c-4,0-7.6-1.9-10-5.3c-1.4-1.9-2-4.3-2-7
	c0-3.5,1.1-6.4,3.4-8.7c2.2-2.3,5.3-3.6,8.5-3.6C169.5,3.7,172.6,5.1,175.5,8.2 M134.9,7.8l4.7,10.9h-9.4L134.9,7.8z M134.9,0
	l-13.4,30.8h3.8l3.9-9.1h11.6l3.9,9.1h3.8L134.9,0z M100,30.8h3.4V16.6h0.5l10.8,14.1h4.5L108,16.6h0.6c5.2,0,8-2.6,8-7.4
	c0-2.9-1.1-5.3-2.8-6.6c-1.8-1.4-4-1.5-6.8-1.5h-0.9h-6V30.8z M103.5,4.1h2.7c4.7,0,6.9,0.8,6.9,5.1c0,4.1-2.3,4.8-6.9,4.8h-2.7V4.1
	z M69.3,26v-8.2h1.9c1.9,0,5.4-0.2,6.7,2.1c0.6,1.1,0.5,3.1-0.2,4.2c-1.4,2.2-4.2,1.9-7,1.9H69.3z M69.3,12.8V6
	c2.8,0,5.1-0.2,6.3,1.5c0.5,0.8,0.6,2.2,0.2,3.4c-0.7,1.4-1.7,1.8-3.1,1.9C71.8,12.9,71.5,12.8,69.3,12.8 M63.5,1.2v29.6h10.6
	c2.3,0,6,0,8.3-2.9c2.2-2.7,2.3-6,1.8-8.3c-0.7-3-2.5-4.2-5-5.1c0.9-0.6,1.4-1.3,1.7-1.7c1.4-2,1.7-5.9,0.4-8.2
	c-2-3.8-5.8-3.5-8.1-3.5H63.5z M33,1.2l11.4,29.6h4.5L59.6,1.2h-5.5l-7.3,21.2L38.6,1.2H33z M26.4,5.3l4.3-4.5h-1.9l-3.4,3.5
	c-2.7-2.3-6.2-3.7-10.1-3.7C6.8,0.5,0,7.4,0,15.8c0,4.1,1.6,7.9,4.3,10.6l-4.2,4.4h1.8l3.4-3.5c2.7,2.4,6.2,3.8,10,3.8
	c8.5,0,15.3-6.8,15.3-15.3C30.6,11.7,29,7.9,26.4,5.3 M22.5,9.4c1.5,1.7,2.5,4,2.5,6.5c0,5.3-4.4,9.6-9.7,9.6
	c-2.3,0-4.4-0.8-6.1-2.2L22.5,9.4z M8.2,22.3c-1.6-1.7-2.5-4-2.5-6.5c0-5.3,4.3-9.7,9.6-9.7c2.4,0,4.5,0.9,6.2,2.2L8.2,22.3z"/>
</svg>
