<?xml version="1.0" encoding="utf-8"?>
<!-- Generator: Adobe Illustrator 21.0.0, SVG Export Plug-In . SVG Version: 6.00 Build 0)  -->
<svg version="1.1" id="Layer_1" xmlns="http://www.w3.org/2000/svg" xmlns:xlink="http://www.w3.org/1999/xlink" x="0px" y="0px"
	 viewBox="0 0 67.5 60.5" style="enable-background:new 0 0 67.5 60.5;" xml:space="preserve">
<g>
	<path d="M50,60.5H17.5c-0.6,0-1.2-0.5-1.2-1.2V23.8l-5,5c-0.5,0.5-1.2,0.5-1.6,0l-9.3-9.3C0.1,19.2,0,18.9,0,18.6
		c0-0.3,0.2-0.6,0.4-0.8L16.7,4.9c0.2-0.2,0.5-0.2,0.7-0.2h1.8l4.3-4.3c0,0,0.1-0.1,0.1-0.1c0,0,0,0,0,0c0,0,0.1-0.1,0.1-0.1
		c0,0,0,0,0,0c0,0,0,0,0,0C24,0.1,24.2,0,24.4,0l0,0c0,0,0,0,0,0c0,0,0,0,0,0c0,0,0,0,0,0c0,0,0,0,0,0c0,0,0,0,0,0h0c0,0,0,0,0,0h0
		c0,0,0,0,0,0h18.6l0,0c0,0,0,0,0,0l0,0c0,0,0,0,0,0h0c0,0,0,0,0,0c0,0,0,0,0,0c0,0,0,0,0,0l0,0c0,0,0,0,0,0c0,0,0,0,0,0h0h0
		c0,0,0,0,0,0c0,0,0,0,0,0l0,0c0.2,0,0.4,0.1,0.6,0.2h0c0,0,0,0,0,0l0,0c0,0,0,0,0,0l0,0c0,0,0.1,0,0.1,0.1c0,0,0,0,0,0c0,0,0,0,0,0
		c0,0,0,0,0,0c0,0,0.1,0.1,0.1,0.1l4.3,4.3H50c0.3,0,0.5,0.1,0.7,0.2l16.3,12.8c0.3,0.2,0.4,0.5,0.4,0.8c0,0.3-0.1,0.7-0.3,0.9
		l-9.3,9.3c-0.5,0.5-1.2,0.5-1.6,0l-5-5v35.6C51.2,60,50.7,60.5,50,60.5z M18.6,58.2h30.3V21c0-0.5,0.3-0.9,0.7-1.1
		c0.4-0.2,0.9-0.1,1.3,0.3l6.2,6.2l7.6-7.6L49.6,7h-1.4l-9,9c-0.5,0.5-1.2,0.5-1.6,0l-2.7-2.7v11.2c0,0.6-0.5,1.2-1.2,1.2
		s-1.2-0.5-1.2-1.2V13.3L29.9,16c-0.5,0.5-1.2,0.5-1.6,0l-9-9h-1.4L2.9,18.7l7.6,7.6l6.2-6.2c0.3-0.3,0.8-0.4,1.3-0.3
		c0.4,0.2,0.7,0.6,0.7,1.1V58.2z M21.4,5.8l7.7,7.7l3-3l-7.7-7.7L21.4,5.8z M35.4,10.5l3,3l7.7-7.7l-3-3L35.4,10.5z M27.3,2.3
		l6.5,6.5l6.5-6.5H27.3z"/>
</g>
</svg>
