<?xml version="1.0" encoding="utf-8"?>
<!-- Generator: Adobe Illustrator 21.0.0, SVG Export Plug-In . SVG Version: 6.00 Build 0)  -->
<svg version="1.1" id="Layer_1" xmlns="http://www.w3.org/2000/svg" xmlns:xlink="http://www.w3.org/1999/xlink" x="0px" y="0px"
	 viewBox="0 0 69.4 69.4" style="enable-background:new 0 0 69.4 69.4;" xml:space="preserve">
<path d="M57.8,25.4c2.6,0,4.6,2.1,4.6,4.6c0,2.6-2.1,4.6-4.6,4.6c-2.6,0-4.6-2.1-4.6-4.6C53.2,27.5,55.3,25.4,57.8,25.4 M57.8,37
	c3.8,0,6.9-3.1,6.9-6.9c0-3.8-3.1-6.9-6.9-6.9c-3.8,0-6.9,3.1-6.9,6.9C50.9,33.9,54,37,57.8,37"/>
<path d="M61.1,55.3l-0.9,0.2v11.6h-4.6V55.5l-0.9-0.2c-4.5-1-5.5-6-5.6-13.7h18.1C67,49.3,65.8,54.3,61.1,55.3 M46.7,39.3v1.2
	c0,7.1,0.5,14.8,6.5,16.8v12.1h9.3V57.3c6.4-2,6.9-9.7,6.9-16.8v-1.2H46.7z"/>
<path d="M34.7,2.3c2.6,0,4.6,2.1,4.6,4.6c0,2.6-2.1,4.6-4.6,4.6c-2.6,0-4.6-2.1-4.6-4.6C30.1,4.4,32.2,2.3,34.7,2.3 M34.7,13.9
	c3.8,0,6.9-3.1,6.9-6.9c0-3.8-3.1-6.9-6.9-6.9c-3.8,0-6.9,3.1-6.9,6.9C27.8,10.8,30.9,13.9,34.7,13.9"/>
<path d="M43.9,18.5c-0.1,7.9-1.2,12.9-6,13.9L37,32.6V44h-4.6V32.6l-0.9-0.2c-4.5-1-5.5-6.3-5.6-13.9H43.9z M23.5,17.4
	c0,7.2,0.5,15,6.5,17.1v11.8h9.3V34.4c6.4-2,6.9-9.8,6.9-17.1v-1.2H23.5V17.4z"/>
<path d="M11.6,25.4c2.6,0,4.6,2.1,4.6,4.6c0,2.6-2.1,4.6-4.6,4.6c-2.6,0-4.6-2.1-4.6-4.6C6.9,27.5,9,25.4,11.6,25.4 M11.6,37
	c3.8,0,6.9-3.1,6.9-6.9c0-3.8-3.1-6.9-6.9-6.9c-3.8,0-6.9,3.1-6.9,6.9C4.6,33.9,7.7,37,11.6,37"/>
<path d="M20.4,41.6c0,7.3-0.7,12.9-5.6,13.9l-0.9,0.2v11.3H9.3V55.8l-0.9-0.2c-4-0.9-5.9-5.2-6-13.9H20.4z M0,40.5
	c0,6.9,0.8,15,6.9,17.1v11.8h9.3V57.6c6.5-2.1,6.5-10.4,6.5-17.1v-1.2H0V40.5z"/>
</svg>
