<?xml version="1.0" encoding="utf-8"?>
<!-- Generator: Adobe Illustrator 21.0.0, SVG Export Plug-In . SVG Version: 6.00 Build 0)  -->
<svg version="1.1" id="Layer_1" xmlns="http://www.w3.org/2000/svg" xmlns:xlink="http://www.w3.org/1999/xlink" x="0px" y="0px"
	 viewBox="0 0 50.9 69.4" style="enable-background:new 0 0 50.9 69.4;" xml:space="preserve">
<path d="M30.7,48c-0.4,0.1-0.7,0.4-0.9,0.8L25.4,64l-4.4-15.3c-0.1-0.4-0.4-0.7-0.9-0.8C9.7,45.5,2.3,36.3,2.3,25.4
	c0-12.8,10.4-23.1,23.1-23.1c12.8,0,23.1,10.4,23.1,23.1C48.6,36.3,41.2,45.5,30.7,48 M25.4,0C11.4,0,0,11.4,0,25.4
	c0,11.7,7.8,21.7,19,24.6l5.3,18.5c0.1,0.5,0.6,0.8,1.1,0.8c0.5,0,1-0.3,1.1-0.8l5.3-18.5c11.3-2.9,19-12.9,19-24.6
	C50.9,11.4,39.5,0,25.4,0"/>
<path d="M25.4,40.5c-8.3,0-15-6.7-15-15c0-8.3,6.7-15,15-15c8.3,0,15,6.7,15,15C40.5,33.7,33.7,40.5,25.4,40.5 M25.4,8.1
	c-9.6,0-17.4,7.8-17.4,17.4c0,9.6,7.8,17.4,17.4,17.4c9.6,0,17.4-7.8,17.4-17.4C42.8,15.9,35,8.1,25.4,8.1"/>
</svg>
