<?xml version="1.0" encoding="utf-8"?>
<!-- Generator: Adobe Illustrator 21.0.0, SVG Export Plug-In . SVG Version: 6.00 Build 0)  -->
<svg version="1.1" id="Layer_1" xmlns="http://www.w3.org/2000/svg" xmlns:xlink="http://www.w3.org/1999/xlink" x="0px" y="0px"
	 viewBox="0 0 67.1 67.1" style="enable-background:new 0 0 67.1 67.1;" xml:space="preserve">
<path d="M33.5,64.8c-17.2,0-31.2-14-31.2-31.2c0-17.2,14-31.2,31.2-31.2c17.2,0,31.2,14,31.2,31.2C64.8,50.8,50.8,64.8,33.5,64.8
	 M33.5,0C15,0,0,15,0,33.5s15,33.5,33.5,33.5c18.5,0,33.5-15,33.5-33.5S52,0,33.5,0"/>
<path d="M33.5,37c-1.9,0-3.5-1.6-3.5-3.5c0-1.9,1.6-3.5,3.5-3.5c1.9,0,3.5,1.6,3.5,3.5C37,35.5,35.5,37,33.5,37 M48.9,16.5
	L36.7,28.7c-0.9-0.6-2-1-3.2-1c-3.2,0-5.8,2.6-5.8,5.8s2.6,5.8,5.8,5.8c3.2,0,5.8-2.6,5.8-5.8c0-1.2-0.4-2.3-1-3.2l12.2-12.2
	c0.5-0.5,0.5-1.2,0-1.6C50.1,16.1,49.4,16.1,48.9,16.5"/>
<path d="M13.9,33.5c0-0.6-0.5-1.2-1.2-1.2H8.1c-0.6,0-1.2,0.5-1.2,1.2c0,0.6,0.5,1.2,1.2,1.2h4.6C13.4,34.7,13.9,34.2,13.9,33.5"/>
<path d="M14.8,24.5l-4.3-1.8c-0.6-0.2-1.3,0-1.5,0.6c-0.2,0.6,0,1.3,0.6,1.5l4.3,1.8c0.1,0.1,0.3,0.1,0.4,0.1c0.5,0,0.9-0.3,1.1-0.7
	C15.6,25.4,15.3,24.8,14.8,24.5"/>
<path d="M16.4,14.7c-0.5-0.5-1.2-0.5-1.6,0c-0.5,0.5-0.5,1.2,0,1.6l3.3,3.3c0.2,0.2,0.5,0.3,0.8,0.3c0.3,0,0.6-0.1,0.8-0.3
	c0.5-0.5,0.5-1.2,0-1.6L16.4,14.7z"/>
<path d="M24.5,14.8c0.2,0.4,0.6,0.7,1.1,0.7c0.1,0,0.3,0,0.4-0.1c0.6-0.2,0.9-0.9,0.6-1.5l-1.8-4.3C24.6,9,24,8.7,23.4,9
	c-0.6,0.2-0.9,0.9-0.6,1.5L24.5,14.8z"/>
<path d="M33.5,13.9c0.6,0,1.2-0.5,1.2-1.2l0-4.6c0-0.6-0.5-1.2-1.2-1.2c-0.6,0-1.2,0.5-1.2,1.2l0,4.6C32.4,13.4,32.9,13.9,33.5,13.9
	"/>
<path d="M41.1,15.4c0.1,0.1,0.3,0.1,0.4,0.1c0.5,0,0.9-0.3,1.1-0.7l1.8-4.3c0.2-0.6,0-1.3-0.6-1.5c-0.6-0.2-1.3,0-1.5,0.6l-1.8,4.3
	C40.2,14.5,40.5,15.1,41.1,15.4"/>
<path d="M52.8,26.7c0.1,0,0.3,0,0.4-0.1l4.3-1.8c0.6-0.2,0.9-0.9,0.6-1.5c-0.2-0.6-0.9-0.9-1.5-0.6l-4.3,1.8
	c-0.6,0.2-0.9,0.9-0.6,1.5C51.9,26.5,52.3,26.7,52.8,26.7"/>
<path d="M59,32.4l-4.6,0c-0.6,0-1.2,0.5-1.2,1.2c0,0.6,0.5,1.2,1.2,1.2l4.6,0h0c0.6,0,1.2-0.5,1.2-1.2C60.1,32.9,59.6,32.4,59,32.4"
	/>
<path d="M57.5,42.2l-4.3-1.8c-0.6-0.2-1.3,0-1.5,0.6c-0.2,0.6,0,1.3,0.6,1.5l4.3,1.8c0.1,0.1,0.3,0.1,0.4,0.1c0.5,0,0.9-0.3,1.1-0.7
	C58.4,43.1,58.1,42.5,57.5,42.2"/>
<path d="M13.9,40.4l-4.3,1.8C9,42.5,8.7,43.1,9,43.7c0.2,0.4,0.6,0.7,1.1,0.7c0.1,0,0.3,0,0.4-0.1l4.3-1.8c0.6-0.2,0.9-0.9,0.6-1.5
	C15.1,40.5,14.5,40.2,13.9,40.4"/>
<path d="M44,53.2H23.1v-4.6H44V53.2z M45.1,46.3H22c-0.6,0-1.2,0.5-1.2,1.2v6.9c0,0.6,0.5,1.2,1.2,1.2h23.1c0.6,0,1.2-0.5,1.2-1.2
	v-6.9C46.3,46.8,45.8,46.3,45.1,46.3"/>
</svg>
