<?xml version="1.0" encoding="utf-8"?>
<!-- Generator: Adobe Illustrator 21.0.0, SVG Export Plug-In . SVG Version: 6.00 Build 0)  -->
<svg version="1.1" id="Layer_1" xmlns="http://www.w3.org/2000/svg" xmlns:xlink="http://www.w3.org/1999/xlink" x="0px" y="0px"
	 viewBox="0 0 512 512" style="enable-background:new 0 0 512 512;" xml:space="preserve">
<path d="M246.8,223.6c13,0,23.6,8.6,23.6,19.1h2.3c0-11.8-11.6-21.4-25.9-21.4c-14.3,0-26,9.6-26,21.4c0,5.8,2.3,11,6.6,14.7
	l-5.3,9.6c-0.2,0.4-0.2,1,0.1,1.3c0.2,0.3,0.5,0.4,0.9,0.4c0.1,0,0.3,0,0.4-0.1l14.7-5.6c1.2,0.4,3,0.9,4.4,1.1l0.3-2.3
	c-1.4-0.2-3.4-0.8-4.4-1.1c-0.2-0.1-0.5-0.1-0.8,0l-12.1,4.6l4.2-7.6c0.3-0.5,0.2-1.1-0.3-1.5c-4.2-3.4-6.5-8.2-6.5-13.6
	C223.2,232.1,233.8,223.6,246.8,223.6"/>
<path d="M276.8,282.6c-0.1-0.1-0.3-0.1-0.4-0.1c-0.2,0-0.3,0-0.5,0.1c-2.5,1.1-5.1,1.7-7.8,1.7c-10.1,0-18.7-7.7-18.7-16.7
	c0-8.9,8.8-16.3,19.3-16.3c10.4,0,19.3,7.5,19.3,16.3c0,4.2-1.9,7.9-5.4,10.8c-0.4,0.3-0.6,0.9-0.3,1.4l3.3,6.3L276.8,282.6z
	 M284.7,279.6c3.6-3.2,5.5-7.3,5.5-12c0-10.1-9.9-18.7-21.6-18.7s-21.6,8.5-21.6,18.7c0,10.3,9.6,19,21,19c2.9,0,5.7-0.6,8.3-1.7
	l11.1,4.4c0.1,0.1,0.3,0.1,0.4,0.1c0.3,0,0.6-0.1,0.9-0.4c0.3-0.4,0.4-0.9,0.2-1.3L284.7,279.6z"/>
</svg>
