<?xml version="1.0" encoding="utf-8"?>
<!-- Generator: Adobe Illustrator 21.0.0, SVG Export Plug-In . SVG Version: 6.00 Build 0)  -->
<svg version="1.1" id="Layer_1" xmlns="http://www.w3.org/2000/svg" xmlns:xlink="http://www.w3.org/1999/xlink" x="0px" y="0px"
	 viewBox="0 0 129 110.2" style="enable-background:new 0 0 129 110.2;" xml:space="preserve">
<style type="text/css">
	.st0{fill:#C7C7C7;}
</style>
<g>
	<path class="st0" d="M6.7,55.6l57.9,29.4l57.8-29.4L64.6,26.3L6.7,55.6z M64.6,88.4L0,55.6l64.6-32.7L129,55.6L64.6,88.4z"/>
	<path class="st0" d="M49.3,45.6l-1.5-0.9L47,46.4c-0.9-0.8-2.2-1.2-3.8-1.2c-3.9,0-5.8,2.5-5.8,5.9v9.7c0,1.2,0.2,2.3,0.7,3.2
		c0,0-1.1,2.2-1.1,2.2l1.5,0.9c0,0,0.8-1.6,0.8-1.6c0.9,0.7,2.2,1.2,3.8,1.2c3.9,0,5.7-2.5,5.7-5.9V51c0-1.2-0.2-2.2-0.7-3.2
		C48.8,46.6,49.3,45.6,49.3,45.6 M45.6,49l-5.3,10.4v-8.7c0-1.8,0.9-3,2.8-3C44.4,47.7,45.2,48.2,45.6,49 M46,60.9
		c0,1.8-0.9,3-2.8,3c-1.2,0-2-0.5-2.4-1.3c0,0,5.3-10.5,5.3-10.4V60.9z M72.3,40.8h-3.7l-3.9,22.8L61,40.8h-3.9l5.7,29.6h3.6
		L72.3,40.8z M90.6,61.5v-2.2c0-2-0.8-3.4-2.8-3.8c1.8-0.4,2.6-1.6,2.6-3.7v-1.7c0-2.9-1.4-4.6-4.8-4.6h-6v20.6h6.1
		C89.1,66.1,90.6,64.5,90.6,61.5 M87.5,52.3c0,1.5-0.7,2.3-2.2,2.3h-2.7v-6.5h3c1.4,0,1.9,0.8,1.9,2V52.3z M87.7,61.6
		c0,1.1-0.5,2-1.9,2h-3.2v-6.7h2.9c1.4,0,2.2,0.8,2.2,2.3V61.6z"/>
	<path class="st0" d="M18,8.9c-0.5,0-1-0.1-1.3-0.4C16.8,8.4,17,8.1,17,7.8c0-0.5-0.4-0.9-0.9-0.9c-0.5,0-1,0.3-1,1.1
		c0,1.2,1.4,1.9,3,1.9c2,0,3.5-1.4,3.5-3.3c0-1.9-1.4-3.2-3.3-3.2c-0.5,0-1.2,0.1-1.6,0.4l0.2-2.4h4c0.3,0,0.5-0.2,0.5-0.5
		c0-0.3-0.2-0.5-0.5-0.5h-4.5c-0.3,0-0.5,0.2-0.5,0.5l-0.3,4.4c0,0.3,0.2,0.6,0.5,0.6c0.3,0,0.5-0.2,0.5-0.4l0.1-0.5
		c0.5-0.3,1.1-0.4,1.6-0.4c1.3,0,2.3,0.8,2.3,2.2C20.4,8,19.3,8.9,18,8.9 M29,8.7h-4C25.9,6.5,30,5.7,30,2.8c0-1.6-1.3-2.7-3-2.7
		c-1.8,0-3.2,1.1-3.2,2.5c0,0.8,0.5,1.1,1,1.1c0.5,0,0.9-0.3,0.9-0.9c0-0.4-0.3-0.8-0.7-0.9c0.3-0.6,1.1-0.9,1.9-0.9
		c1.1,0,1.9,0.8,1.9,1.7c0,1.4-1.2,2-2.9,3.3c-1.1,0.8-2,1.9-2,2.9c0,0.4,0.2,0.7,0.6,0.7h5.1c0.3,0,0.5-0.2,0.5-0.5V7.7
		c0-0.3-0.3-0.5-0.6-0.5c-0.3,0-0.6,0.3-0.6,0.5V8.7z M36.8,2.6c0-1.3-0.9-2.3-2.4-2.3c-1.5,0-2.4,1.1-2.4,2.3
		c0,1.3,0.9,2.3,2.4,2.3C35.9,4.9,36.8,3.9,36.8,2.6 M33.1,2.6c0-0.8,0.4-1.4,1.3-1.4c0.9,0,1.3,0.6,1.3,1.4c0,0.7-0.4,1.4-1.3,1.4
		C33.5,4,33.1,3.3,33.1,2.6 M49.6,8.9c-0.5,0-1-0.1-1.3-0.4c0.2-0.1,0.4-0.4,0.4-0.7c0-0.5-0.4-0.9-0.9-0.9c-0.5,0-1,0.3-1,1.1
		c0,1.2,1.4,1.9,3,1.9c2,0,3.5-1.4,3.5-3.3c0-1.9-1.4-3.2-3.4-3.2c-0.5,0-1.2,0.1-1.6,0.4l0.2-2.4h4c0.3,0,0.5-0.2,0.5-0.5
		c0-0.3-0.2-0.5-0.5-0.5H48c-0.3,0-0.5,0.2-0.5,0.5l-0.3,4.4c0,0.3,0.2,0.6,0.5,0.6c0.3,0,0.5-0.2,0.5-0.4l0.1-0.5
		c0.5-0.3,1.1-0.4,1.6-0.4c1.3,0,2.3,0.8,2.3,2.2C52.1,8,51,8.9,49.6,8.9 M62.1,6.7c0-1.8-1.3-3.2-3.2-3.2c-1,0-1.8,0.4-2.2,0.9
		c0.8-2.2,3.1-3.3,4.5-3.5c0.3,0,0.5-0.2,0.5-0.5C61.6,0.2,61.4,0,61,0c-2.1,0-5.7,2.5-5.7,6.2c0,2.3,1.5,3.7,3.4,3.7
		C60.7,9.9,62.1,8.5,62.1,6.7 M58.7,8.9c-1.3,0-2.2-0.9-2.2-2.2c0-1.3,1-2.2,2.2-2.2c1.3,0,2.2,0.9,2.2,2.2C60.9,8,60,8.9,58.7,8.9
		 M78.9,0.2c-2,0-3.3,2.1-3.3,4.9c0,2.8,1.4,4.8,3.3,4.8s3.3-2.1,3.3-4.8C82.2,2.3,80.9,0.2,78.9,0.2 M78.9,8.9
		c-1.3,0-2.2-1.6-2.2-3.8c0-2.2,0.9-3.9,2.2-3.9s2.2,1.7,2.2,3.9C81.1,7.3,80.2,8.9,78.9,8.9 M88.3,0.8c0-0.4-0.3-0.6-0.6-0.6
		c-0.2,0-0.4,0.1-0.6,0.3l-2.5,3.3c-0.1,0.1-0.1,0.2-0.1,0.3c0,0.3,0.3,0.5,0.6,0.5c0.2,0,0.3-0.1,0.4-0.2l1.7-2.3v6.6h-2
		c-0.3,0-0.5,0.2-0.5,0.5c0,0.3,0.2,0.5,0.5,0.5h5c0.3,0,0.5-0.2,0.5-0.5c0-0.3-0.2-0.5-0.5-0.5h-1.9V0.8z M112.5,1.3h0.9
		c0.3,0,0.5-0.2,0.5-0.5c0-0.3-0.2-0.5-0.5-0.5h-3.1c-0.3,0-0.5,0.2-0.5,0.5c0,0.3,0.2,0.5,0.5,0.5h1.1v6.4l-3.9-7.1
		c-0.1-0.2-0.4-0.3-0.6-0.3h-2.2c-0.3,0-0.5,0.2-0.5,0.5c0,0.3,0.2,0.5,0.5,0.5h1.2v7.4h-1.2c-0.3,0-0.5,0.2-0.5,0.5
		c0,0.3,0.2,0.5,0.5,0.5h3.6c0.3,0,0.5-0.2,0.5-0.5c0-0.3-0.2-0.5-0.5-0.5H107V1.6l4.3,7.7c0.2,0.3,0.4,0.4,0.7,0.4
		c0.4,0,0.6-0.3,0.6-0.6V1.3z"/>
	<path class="st0" d="M19.9,106.6c0.3,0,0.5-0.2,0.5-0.5c0-0.3-0.2-0.5-0.5-0.5h-3.6c-0.3,0-0.5,0.2-0.5,0.5c0,0.3,0.2,0.5,0.5,0.5
		H19.9z M26.4,101.1c0-0.4-0.3-0.6-0.6-0.6c-0.2,0-0.4,0.1-0.6,0.3l-2.5,3.3c-0.1,0.1-0.1,0.2-0.1,0.3c0,0.3,0.3,0.5,0.6,0.5
		c0.2,0,0.3-0.1,0.4-0.2l1.7-2.3v6.6h-2c-0.3,0-0.5,0.2-0.5,0.5c0,0.3,0.2,0.5,0.5,0.5h5c0.3,0,0.5-0.2,0.5-0.5
		c0-0.3-0.2-0.5-0.5-0.5h-1.9V101.1z M34.9,102.9c0-1.3-0.9-2.3-2.4-2.3c-1.5,0-2.4,1-2.4,2.3c0,1.3,0.9,2.3,2.4,2.3
		C34,105.2,34.9,104.2,34.9,102.9 M31.2,102.9c0-0.8,0.4-1.4,1.3-1.4c0.9,0,1.3,0.6,1.3,1.4c0,0.7-0.4,1.4-1.3,1.4
		C31.6,104.3,31.2,103.6,31.2,102.9 M47,100.5c-2,0-3.3,2.1-3.3,4.9c0,2.8,1.4,4.8,3.3,4.8c2,0,3.3-2.1,3.3-4.8
		C50.3,102.6,48.9,100.5,47,100.5 M47,109.2c-1.3,0-2.2-1.6-2.2-3.8c0-2.2,0.9-3.9,2.2-3.9s2.2,1.7,2.2,3.9
		C49.2,107.6,48.3,109.2,47,109.2 M58.7,101.2c0-0.3-0.2-0.5-0.5-0.5h-5.6c-0.3,0-0.6,0.2-0.6,0.5v2.1c0,0.3,0.3,0.5,0.6,0.5
		c0.3,0,0.6-0.2,0.6-0.5v-1.6h4.2c-1.4,2.1-2.4,3.8-3.1,5.8c-0.3,0.8-0.4,1.5-0.4,2.1c0,0.3,0.2,0.6,0.6,0.6c0.4,0,0.6-0.2,0.6-0.5
		c0.2-1.4,0.4-2.4,1-3.8c0.8-1.8,1.7-3.1,2.4-4.1C58.7,101.5,58.7,101.4,58.7,101.2 M76.9,101.6c0.1-0.2,0.2-0.3,0.2-0.5
		c0-0.3-0.3-0.5-0.5-0.5h-4.9c-0.3,0-0.5,0.2-0.5,0.5c0,0.3,0.2,0.5,0.5,0.5h3.8l-3.1,3.1c-0.1,0.1-0.2,0.2-0.2,0.4
		c0,0.3,0.2,0.5,0.5,0.5c0.1,0,0.3,0,0.4-0.2l0.8-0.7c1.1,0.1,2.2,0.8,2.2,2.2c0,1.4-1,2.3-2.4,2.3c-0.5,0-1-0.1-1.3-0.4
		c0.2-0.1,0.4-0.4,0.4-0.7c0-0.5-0.4-0.9-0.9-0.9c-0.5,0-1,0.3-1,1.1c0,1.2,1.4,1.9,3,1.9c2,0,3.5-1.4,3.5-3.3c0-1.6-1.2-2.7-2.6-3
		L76.9,101.6z M108.2,108.3l-2.3-6.6h1.2c0.3,0,0.5-0.2,0.5-0.5c0-0.3-0.2-0.5-0.5-0.5h-8.3c-0.3,0-0.5,0.2-0.5,0.5
		c0,0.3,0.2,0.5,0.5,0.5h0.9l2.9,8.1c0.1,0.2,0.2,0.4,0.6,0.4c0.3,0,0.5-0.2,0.6-0.4l1.9-5.4l1.9,5.4c0.1,0.2,0.2,0.4,0.6,0.4
		c0.3,0,0.5-0.2,0.6-0.4l2.9-8.1h0.9c0.3,0,0.5-0.2,0.5-0.5c0-0.3-0.2-0.5-0.5-0.5h-3.1c-0.3,0-0.5,0.2-0.5,0.5
		c0,0.3,0.2,0.5,0.5,0.5h1.1L108.2,108.3z M100.9,101.7h3.7l0.5,1.3l-1.9,5.3L100.9,101.7z"/>
	<path class="st0" d="M89,104c0.1,0,0.4-0.1,0.4-0.4c0,0,0.3-1.9,0.3-2.3c0-0.4-0.3-0.7-0.7-0.7c-0.5,0-0.7,0.3-0.7,0.7
		c0,0.4,0.3,2.3,0.3,2.3C88.6,103.9,88.8,104,89,104"/>
	<path class="st0" d="M91,104c0.1,0,0.4-0.1,0.4-0.4c0,0,0.3-1.9,0.3-2.3c0-0.4-0.3-0.7-0.7-0.7c-0.5,0-0.7,0.3-0.7,0.7
		c0,0.4,0.3,2.3,0.3,2.3C90.6,103.9,90.8,104,91,104"/>
	<path class="st0" d="M62,104c0.1,0,0.4-0.1,0.4-0.4c0,0,0.3-1.9,0.3-2.3c0-0.4-0.3-0.7-0.7-0.7c-0.5,0-0.7,0.3-0.7,0.7
		c0,0.4,0.3,2.3,0.3,2.3C61.7,103.9,61.9,104,62,104"/>
	<path class="st0" d="M85.9,107c0-1.8-1.3-3.2-3.2-3.2c-1,0-1.8,0.4-2.2,0.9c0.8-2.2,3.1-3.3,4.5-3.5c0.3,0,0.5-0.2,0.5-0.5
		c0-0.3-0.2-0.5-0.6-0.5c-2.1,0-5.7,2.5-5.7,6.2c0,2.3,1.5,3.7,3.4,3.7C84.5,110.2,85.9,108.9,85.9,107 M82.5,109.2
		c-1.3,0-2.2-0.9-2.2-2.2c0-1.3,1-2.2,2.2-2.2c1.3,0,2.2,0.9,2.2,2.2C84.8,108.3,83.9,109.2,82.5,109.2"/>
</g>
</svg>
