<?xml version="1.0" encoding="utf-8"?>
<!-- Generator: Adobe Illustrator 21.0.0, SVG Export Plug-In . SVG Version: 6.00 Build 0)  -->
<svg version="1.1" id="Layer_1" xmlns="http://www.w3.org/2000/svg" xmlns:xlink="http://www.w3.org/1999/xlink" x="0px" y="0px"
	 viewBox="0 0 28.1 28.1" style="enable-background:new 0 0 28.1 28.1;" xml:space="preserve">
<path class="st0" d="M22.9,0H5.2C5.2,0,0,0,0,5.2v17.7c0,0,0,5.2,5.2,5.2h17.7c0,0,5.2,0,5.2-5.2V5.2C28.1,5.2,28.1,0,22.9,0z
	 M19.2,7.7h-2.1c0,0-0.9,0-0.9,0.9v2.7h2.9v3.6h-2.9v9.6H12v-9.6h-3v-3.6h3V8c0-4.3,4.3-4.3,4.3-4.3h2.9V7.7z"/>
</svg>
