<?xml version="1.0" encoding="utf-8"?>
<!-- Generator: Adobe Illustrator 21.0.0, SVG Export Plug-In . SVG Version: 6.00 Build 0)  -->
<svg version="1.1" id="Layer_1" xmlns="http://www.w3.org/2000/svg" xmlns:xlink="http://www.w3.org/1999/xlink" x="0px" y="0px"
	 viewBox="0 0 28.1 28.1" style="enable-background:new 0 0 28.1 28.1;" xml:space="preserve">
<path d="M22,3.3c0-0.8,0.8-0.8,0.8-0.8h2c0.8,0,0.8,0.8,0.8,0.8v2c0,0.8-0.8,0.8-0.8,0.8h-2C22,6.1,22,5.3,22,5.3V3.3z M21,9.3h7.1
	V5.2c0,0,0-5.2-5.2-5.2H5.2C5.2,0,0,0,0,5.2v4.1h7.1c1.5-2.2,4-3.6,6.9-3.6C16.9,5.6,19.4,7.1,21,9.3 M14,8.7
	c-2.9,0-5.3,2.4-5.3,5.3c0,2.9,2.4,5.3,5.3,5.3c2.9,0,5.3-2.4,5.3-5.3C19.4,11.1,17,8.7,14,8.7 M28.1,22.9V12.3h-5.8
	c0.1,0.6,0.2,1.1,0.2,1.7c0,4.6-3.8,8.4-8.4,8.4c-4.6,0-8.4-3.8-8.4-8.4c0-0.6,0.1-1.2,0.2-1.7H0v10.6c0,0,0,5.2,5.2,5.2h17.7
	C22.9,28.1,28.1,28.1,28.1,22.9"/>
</svg>
