<?xml version="1.0" encoding="utf-8"?>
<!-- Generator: Adobe Illustrator 21.0.0, SVG Export Plug-In . SVG Version: 6.00 Build 0)  -->
<svg version="1.1" id="Layer_1" xmlns="http://www.w3.org/2000/svg" xmlns:xlink="http://www.w3.org/1999/xlink" x="0px" y="0px"
	 viewBox="0 0 57.8 69.4" style="enable-background:new 0 0 57.8 69.4;" xml:space="preserve">
<path d="M53.9,46.3L44,56.2v-9.9H53.9z M41.6,62.5c0,2.8-1.8,4.6-4.6,4.6H20.8c-2.8,0-4.6-1.8-4.6-4.6V59v0V40.5v0V22v0V5.8
	c0-1.8,0.6-3.5,4.6-3.5l16.2,0c2.8,0,4.6,1.8,4.6,4.6V62.5z M3.9,46.3h9.9v9.9L3.9,46.3z M3.9,27.8h9.9v9.9L3.9,27.8z M3.9,9.3h9.9
	v9.9L3.9,9.3z M53.9,9.3L44,19.2V9.3H53.9z M53.9,27.8L44,37.7v-9.9H53.9z M57.5,27.4c0.3-0.3,0.4-0.8,0.3-1.3
	c-0.2-0.4-0.6-0.7-1.1-0.7H44v-3L57.5,8.9c0.3-0.3,0.4-0.8,0.3-1.3c-0.2-0.4-0.6-0.7-1.1-0.7H44C44,2.9,41.1,0,37,0L20.8,0
	c-5.7,0-6.9,3.1-6.9,5.8v1.2H1.2c-0.5,0-0.9,0.3-1.1,0.7C-0.1,8.1,0,8.6,0.3,8.9l13.5,13.5v3H1.2c-0.5,0-0.9,0.3-1.1,0.7
	c-0.2,0.4-0.1,0.9,0.2,1.3L13.9,41v3H1.2c-0.5,0-0.9,0.3-1.1,0.7c-0.2,0.4-0.1,0.9,0.2,1.3l13.5,13.5v3c0,4.1,2.9,6.9,6.9,6.9H37
	c4.1,0,6.9-2.9,6.9-6.9v-3l13.5-13.5c0.3-0.3,0.4-0.8,0.3-1.3c-0.2-0.4-0.6-0.7-1.1-0.7H44v-3L57.5,27.4z"/>
<path d="M28.9,20.8c-3.2,0-5.8-2.6-5.8-5.8s2.6-5.8,5.8-5.8c3.2,0,5.8,2.6,5.8,5.8S32.1,20.8,28.9,20.8 M28.9,6.9
	c-4.5,0-8.1,3.6-8.1,8.1c0,4.5,3.6,8.1,8.1,8.1c4.5,0,8.1-3.6,8.1-8.1C37,10.6,33.4,6.9,28.9,6.9"/>
<path d="M28.9,39.3c-3.2,0-5.8-2.6-5.8-5.8s2.6-5.8,5.8-5.8c3.2,0,5.8,2.6,5.8,5.8S32.1,39.3,28.9,39.3 M28.9,25.4
	c-4.5,0-8.1,3.6-8.1,8.1c0,4.5,3.6,8.1,8.1,8.1c4.5,0,8.1-3.6,8.1-8.1C37,29.1,33.4,25.4,28.9,25.4"/>
<path d="M28.9,57.8c-3.2,0-5.8-2.6-5.8-5.8s2.6-5.8,5.8-5.8c3.2,0,5.8,2.6,5.8,5.8S32.1,57.8,28.9,57.8 M28.9,44
	c-4.5,0-8.1,3.6-8.1,8.1c0,4.5,3.6,8.1,8.1,8.1c4.5,0,8.1-3.6,8.1-8.1C37,47.6,33.4,44,28.9,44"/>
</svg>
