<?xml version="1.0" encoding="utf-8"?>
<!-- Generator: Adobe Illustrator 21.0.0, SVG Export Plug-In . SVG Version: 6.00 Build 0)  -->
<svg version="1.1" id="Layer_1" xmlns="http://www.w3.org/2000/svg" xmlns:xlink="http://www.w3.org/1999/xlink" x="0px" y="0px"
	 viewBox="0 0 69.4 69.4" style="enable-background:new 0 0 69.4 69.4;" xml:space="preserve">
<path d="M2.3,67.1V3.9l8.8,8.8l-2.7,2.7C8,15.8,8,16.6,8.4,17c0.2,0.2,0.5,0.3,0.8,0.3c0.3,0,0.6-0.1,0.8-0.3l2.7-2.7l5.9,5.9
	l-3.2,3.2c-0.5,0.4-0.5,1.2,0,1.6c0.2,0.2,0.5,0.3,0.8,0.3s0.6-0.1,0.8-0.3l3.2-3.2l5.3,5.3l-3.2,3.2c-0.5,0.5-0.5,1.2,0,1.6
	c0.2,0.2,0.5,0.3,0.8,0.3c0.3,0,0.6-0.1,0.8-0.3l3.2-3.2l5.9,5.9l-2.7,2.7c-0.5,0.5-0.5,1.2,0,1.6c0.2,0.2,0.5,0.3,0.8,0.3
	c0.3,0,0.6-0.1,0.8-0.3l2.7-2.7l5.9,5.9l-3.2,3.2c-0.5,0.5-0.5,1.2,0,1.6c0.2,0.2,0.5,0.3,0.8,0.3c0.3,0,0.6-0.1,0.8-0.3l3.2-3.2
	l5.3,5.3l-3.2,3.2c-0.5,0.4-0.5,1.2,0,1.6c0.2,0.2,0.5,0.3,0.8,0.3s0.6-0.1,0.8-0.3l3.2-3.2l5.9,5.9l-2.7,2.7
	c-0.5,0.4-0.5,1.2,0,1.6c0.2,0.2,0.5,0.3,0.8,0.3c0.3,0,0.6-0.1,0.8-0.3l2.7-2.7l8.8,8.8H2.3z M68.9,67.3L2,0.3
	C1.6,0,1.1-0.1,0.7,0.1C0.3,0.3,0,0.7,0,1.2v67.1c0,0.6,0.5,1.2,1.2,1.2h67.1h0c0.6,0,1.2-0.5,1.2-1.2
	C69.4,67.9,69.2,67.5,68.9,67.3"/>
<path d="M11.6,57.8V31.7l26.1,26.1H11.6z M11.2,28.1c-0.3-0.3-0.8-0.4-1.3-0.2c-0.4,0.2-0.7,0.6-0.7,1.1V59c0,0.6,0.5,1.2,1.2,1.2
	h30.1c0.5,0,0.9-0.3,1.1-0.7c0.2-0.4,0.1-0.9-0.3-1.3L11.2,28.1z"/>
</svg>
